<?xml version="1.0" standalone="no"?>
<!DOCTYPE svg PUBLIC "-//W3C//DTD SVG 20010904//EN"
 "http://www.w3.org/TR/2001/REC-SVG-20010904/DTD/svg10.dtd">
<svg version="1.0" xmlns="http://www.w3.org/2000/svg"
 width="198.000000pt" height="198.000000pt" viewBox="0 0 198.000000 198.000000"
 preserveAspectRatio="xMidYMid meet">
<metadata>
Created by potrace 1.14, written by Peter Selinger 2001-2017
</metadata>
<g transform="translate(0.000000,198.000000) scale(0.100000,-0.100000)"
fill="#000000" stroke="none">
<path d="M323 1959 c-30 -15 -48 -33 -62 -63 -21 -42 -21 -56 -21 -906 0 -852
0 -864 21 -906 15 -31 32 -48 63 -63 41 -21 57 -21 666 -21 609 0 625 0 666
21 31 15 48 32 63 63 21 42 21 54 21 906 0 852 0 864 -21 906 -15 31 -32 48
-63 63 -41 21 -57 21 -667 21 -612 0 -625 0 -666 -21z m1290 -70 c14 -6 30
-22 36 -36 17 -38 13 -44 -14 -18 l-24 25 -621 0 -621 0 -24 -25 c-14 -13 -25
-20 -25 -15 0 21 24 59 44 68 31 15 1217 16 1249 1z m-994 -115 c83 -70 41
-194 -66 -194 -38 0 -50 5 -79 34 -24 24 -34 43 -34 65 0 99 107 156 179 95z
m321 -10 c11 -12 10 -18 -3 -32 -16 -15 -18 -15 -34 0 -13 14 -14 20 -3 32 7
9 16 16 20 16 4 0 13 -7 20 -16z m130 0 c11 -12 10 -18 -3 -32 -16 -15 -18
-15 -34 0 -13 14 -14 20 -3 32 7 9 16 16 20 16 4 0 13 -7 20 -16z m410 -164
c0 -15 -7 -20 -27 -20 -21 0 -56 -28 -163 -135 l-137 -135 -416 0 c-410 0
-417 0 -417 20 0 20 7 20 407 20 l407 0 136 135 c126 124 140 135 173 135 30
0 37 -4 37 -20z m180 -105 c0 -11 -11 -15 -40 -15 -29 0 -40 4 -40 15 0 11 11
15 40 15 29 0 40 -4 40 -15z m-1142 -697 c23 -16 42 -33 42 -38 0 -13 -102
-80 -112 -74 -9 6 -11 138 -2 147 8 7 12 5 72 -35z m1142 -553 c0 -11 -11 -15
-40 -15 -29 0 -40 4 -40 15 0 11 11 15 40 15 29 0 40 -4 40 -15z"/>
<path d="M489 1751 c-49 -49 -37 -121 25 -146 81 -34 155 40 121 122 -26 61
-97 72 -146 24z m109 -8 c34 -29 37 -66 9 -98 -46 -54 -127 -26 -127 44 0 59
73 92 118 54z"/>
</g>
</svg>
