<svg width="99" height="99" viewBox="0 0 99 99" fill="none" xmlns="http://www.w3.org/2000/svg">
<path d="M49.102 0C21.983 0 0 21.983 0 49.102C0 76.221 21.983 98.205 49.102 98.205C76.221 98.205 98.203 76.221 98.203 49.102C98.203 21.983 76.221 0 49.102 0ZM57.669 78.139C57.669 82.541 53.863 86.108 49.169 86.108C44.475 86.108 40.669 82.541 40.669 78.139V41.577C40.669 37.176 44.475 33.608 49.169 33.608C53.863 33.608 57.669 37.176 57.669 41.577V78.139ZM49.102 30.322C44.054 30.322 39.961 26.23 39.961 21.18C39.961 16.131 44.053 12.039 49.102 12.039C54.152 12.039 58.244 16.131 58.244 21.18C58.243 26.23 54.151 30.322 49.102 30.322Z" fill="#2E3056"/>
</svg>
