<svg width="11" height="10" viewBox="0 0 11 10" fill="none" xmlns="http://www.w3.org/2000/svg">
<path fill-rule="evenodd" clip-rule="evenodd" d="M5.61044 9.78556C5.34474 9.50375 5.34923 9.05151 5.62046 8.77546L8.62823 5.71429L0.6875 5.71428C0.307804 5.71428 4.02627e-07 5.39449 4.37114e-07 5C4.71601e-07 4.60551 0.307805 4.28571 0.6875 4.28571L8.62823 4.28571L5.62046 1.22454C5.34923 0.948487 5.34474 0.49625 5.61044 0.214443C5.87615 -0.0673642 6.31142 -0.0720257 6.58266 0.20403L10.7936 4.48974C10.9256 4.6241 11 4.80801 11 5C11 5.19199 10.9256 5.3759 10.7936 5.51026L6.58266 9.79597C6.31142 10.072 5.87614 10.0674 5.61044 9.78556Z" fill="#5D5E7C"/>
</svg>
