<svg width="512" height="512" viewBox="0 0 512 512" fill="none" xmlns="http://www.w3.org/2000/svg">
<path d="M255.7 339.6C215.3 339.6 181.6 311 173.6 273H39.2C48.7 383.5 141.4 470.2 254.3 470.2C367.2 470.2 460 383.5 469.4 273H337.8C329.8 311.1 296.1 339.6 255.7 339.6Z" fill="white"/>
<path d="M305.2 255.7C305.1 255.7 305.1 255.7 305.2 255.7C305.1 249.6 304 243.8 302 238.4C295 219.6 276.9 206.3 255.7 206.3C234.5 206.3 216.4 219.7 209.4 238.4C207.4 243.8 206.3 249.6 206.3 255.7H206.4C206.4 261.8 207.5 267.6 209.5 273C216.5 291.8 234.6 305.1 255.8 305.1C277 305.1 295.1 291.7 302.1 273C304.1 267.7 305.2 261.8 305.2 255.7Z" fill="white"/>
<path d="M255.8 171.9C296.2 171.9 329.9 200.5 337.9 238.5H472.3C462.8 127.9 370.1 41.2 257.1 41.2C144.1 41.2 51.5 127.9 42 238.4H173.7C181.7 200.4 215.4 171.9 255.8 171.9Z" fill="#FF1C1C"/>
<path d="M257.1 41.2C370.1 41.2 462.8 127.9 472.2 238.4H337.8C329.8 200.4 296.1 171.8 255.7 171.8C215.3 171.8 181.6 200.4 173.6 238.4H42C51.5 127.9 144.2 41.2 257.1 41.2ZM302 238.4C304 243.8 305.1 249.6 305.1 255.7H305.2C305.2 261.8 304.1 267.6 302.1 273C295.1 291.8 277 305.1 255.8 305.1C234.6 305.1 216.5 291.7 209.5 273C207.5 267.6 206.4 261.8 206.4 255.7H206.3C206.3 249.6 207.4 243.8 209.4 238.4C216.4 219.6 234.5 206.3 255.7 206.3C276.9 206.3 295 219.7 302 238.4ZM254.3 470.3C141.3 470.3 48.6 383.6 39.2 273.1H173.6C181.6 311.1 215.3 339.7 255.7 339.7C296.1 339.7 329.8 311.1 337.8 273.1H469.5C460 383.5 367.3 470.3 254.3 470.3ZM255.7 0C114.5 0 0 114.5 0 255.7C0 396.9 114.5 511.4 255.7 511.4C396.9 511.4 511.5 397 511.5 255.7C511.5 114.4 397 0 255.7 0Z" fill="black"/>
</svg>
