<svg width="11" height="10" viewBox="0 0 11 10" fill="none" xmlns="http://www.w3.org/2000/svg">
<path fill-rule="evenodd" clip-rule="evenodd" d="M5.38956 0.214443C5.65526 0.49625 5.65078 0.948487 5.37954 1.22454L2.37177 4.28571L10.3125 4.28571C10.6922 4.28571 11 4.60551 11 5C11 5.39449 10.6922 5.71429 10.3125 5.71429L2.37177 5.71429L5.37954 8.77546C5.65078 9.05151 5.65526 9.50375 5.38956 9.78556C5.12386 10.0674 4.68858 10.072 4.41734 9.79597L0.206401 5.51026C0.0743925 5.3759 0 5.19199 0 5C0 4.80801 0.0743925 4.6241 0.206401 4.48974L4.41734 0.20403C4.68858 -0.0720257 5.12386 -0.0673635 5.38956 0.214443Z" fill="#5D5E7C"/>
</svg>
